<svg xmlns="http://www.w3.org/2000/svg" xmlns:xlink="http://www.w3.org/1999/xlink" viewBox="0 0 250 250"><defs><style>.cls-1{fill:#ff5e5b;}.cls-2{clip-path:url(#clip-path);}.cls-3{fill:#010000;}.cls-4{fill:#fff5e0;}.cls-5{fill:#010005;}.cls-6{fill:#ecc15a;}</style><clipPath id="clip-path"><circle id="_Ovaal_" data-name="&lt;Ovaal&gt;" class="cls-1" cx="124.07" cy="115.3" r="78.78"/></clipPath></defs><title>chickenTekengebied 3</title><g id="Laag_3" data-name="Laag 3"><g id="Chicken"><circle id="_Ovaal_2" data-name="&lt;Ovaal&gt;" class="cls-1" cx="124.07" cy="115.3" r="78.78"/><g class="cls-2"><path class="cls-3" d="M58.31,163.27S81.95,166,99.56,147h23.64v47.74S88.9,200.81,58.31,163.27Z"/><path class="cls-3" d="M188.08,163.27S164.44,166,146.83,147H123.19v47.74S157.49,200.81,188.08,163.27Z"/><circle class="cls-4" cx="190.37" cy="105.71" r="60.34"/><circle class="cls-4" cx="60.61" cy="105.71" r="60.34"/><circle class="cls-3" cx="124.07" cy="135.51" r="27.67"/></g><circle class="cls-5" cx="85.66" cy="122.86" r="7.55"/><circle class="cls-5" cx="160.39" cy="122.86" r="7.55"/><path class="cls-6" d="M124.4,115.32v0h-.64v0C94.49,116,98.44,147.2,98.44,147.2s13.29,28.12,16.68,34.29c3.91,4.69,7.82,4.77,8.95,4.67,1.13.09,5,0,8.95-4.67,3.4-6.18,16.68-34.29,16.68-34.29S153.66,116,124.4,115.32Z"/></g></g></svg>