<svg xmlns="http://www.w3.org/2000/svg" viewBox="0 0 250 250"><defs><style>.cls-1{fill:#fff9e6;}.cls-2{fill:#b6bbb7;}.cls-3{fill:#c2c3c7;}.cls-4{fill:#bababa;}.cls-5{fill:#ffbec1;}.cls-6{fill:#010005;}</style></defs><title>elephantTekengebied 3</title><g id="Laag_3" data-name="Laag 3"><g id="Elephant"><g id="tusks"><path class="cls-1" d="M74.26,174.05,70.94,199s-.47,11.58,8.42,6,29.48-22.46,29.48-22.46Z"/><path class="cls-1" d="M171,174.05,174.37,199s.47,11.58-8.42,6-29.48-22.46-29.48-22.46Z"/></g><path class="cls-2" d="M152.4,41.14S199.09-2.1,239.9,47.69c5.15,6.55,33.7,56.16-46.8,105.77C171.57,101,152.4,41.14,152.4,41.14Z"/><path class="cls-2" d="M97.36,41.14S50.68-2.1,9.87,47.69c-5.15,6.55-33.7,56.16,46.8,105.77C78.2,101,97.36,41.14,97.36,41.14Z"/><circle class="cls-3" cx="124.3" cy="115.08" r="79.56"/><path class="cls-4" d="M118.89,148.55h7.76a14.1,14.1,0,0,1,14.1,14.1v48.13a0,0,0,0,1,0,0h-36a0,0,0,0,1,0,0V162.65A14.1,14.1,0,0,1,118.89,148.55Z"/><path class="cls-5" d="M129.41,199h-13s-14.8-.7-11,17.82c2.1,5.24,7,13.28,17.47,13.28s15.37-8,17.47-13.28C144.21,198.29,129.41,199,129.41,199Z"/><circle class="cls-6" cx="85.5" cy="122.71" r="7.63"/><circle class="cls-6" cx="160.03" cy="122.71" r="7.63"/><circle class="cls-6" cx="130.7" cy="214.81" r="4.03"/><circle class="cls-6" cx="116.38" cy="214.81" r="4.03"/></g></g></svg>