<svg xmlns="http://www.w3.org/2000/svg" viewBox="0 0 250 250"><defs><style>.cls-1{fill:#ffbebc;}.cls-2{fill:#ff8685;}.cls-3{fill:#ffbec1;}.cls-4{fill:#010005;}.cls-5{fill:#ffddde;}</style></defs><title>pig</title><g id="Laag_3" data-name="Laag 3"><g id="Pig"><circle class="cls-1" cx="124.82" cy="114.63" r="80.35"/><path class="cls-2" d="M132.22,129.29H114.59s-20-.95-14.82,24.11c2.84,7.09,9.45,18,23.63,18s20.8-10.87,23.63-18C152.24,128.34,132.22,129.29,132.22,129.29Z"/><path class="cls-3" d="M132.22,137.32H114.59s-20-.95-14.82,24.11c2.84,7.09,9.45,18,23.63,18s20.8-10.87,23.63-18C152.24,136.38,132.22,137.32,132.22,137.32Z"/><circle class="cls-4" cx="85.64" cy="122.34" r="7.7"/><circle class="cls-4" cx="160.91" cy="122.34" r="7.7"/><circle class="cls-4" cx="133.97" cy="158.73" r="5.45"/><circle class="cls-4" cx="114.59" cy="158.73" r="5.45"/><path class="cls-5" d="M177.52,54.13v52.94s3.07,16.31,17.72,7.56,20.32-13.23,20.32-13.23,13.71-12.29,0-24.34C197.85,66.89,177.52,54.13,177.52,54.13Z"/><path class="cls-5" d="M70.51,53.19v52.94s-3.07,16.31-17.72,7.56-20.32-13.23-20.32-13.23-13.71-12.29,0-24.34C50.19,65.95,70.51,53.19,70.51,53.19Z"/></g></g></svg>